<mxfile host="Electron" agent="Mozilla/5.0 (X11; Linux x86_64) AppleWebKit/537.36 (KHTML, like Gecko) draw.io/28.1.2 Chrome/138.0.7204.243 Electron/37.4.0 Safari/537.36" version="28.1.2" pages="2">
  <diagram name="Page-1" id="qyKOhX7wKubJx3A1yhwW">
    <mxGraphModel dx="665" dy="403" grid="1" gridSize="10" guides="1" tooltips="1" connect="1" arrows="1" fold="1" page="1" pageScale="1" pageWidth="827" pageHeight="1169" math="1" shadow="0">
      <root>
        <mxCell id="0" />
        <mxCell id="1" parent="0" />
        <mxCell id="gshfcQeMo9viiWqzpoU_-25" value="" style="shape=table;startSize=0;container=1;collapsible=0;childLayout=tableLayout;fontSize=11;fillColor=none;strokeColor=default;perimeterSpacing=0;strokeWidth=0.5;opacity=80;" parent="1" vertex="1">
          <mxGeometry x="12.5" y="79" width="140" height="56" as="geometry" />
        </mxCell>
        <mxCell id="gshfcQeMo9viiWqzpoU_-26" value="" style="shape=tableRow;horizontal=0;startSize=0;swimlaneHead=0;swimlaneBody=0;strokeColor=inherit;top=0;left=0;bottom=0;right=0;collapsible=0;dropTarget=0;fillColor=none;points=[[0,0.5],[1,0.5]];portConstraint=eastwest;fontSize=16;" parent="gshfcQeMo9viiWqzpoU_-25" vertex="1">
          <mxGeometry width="140" height="20" as="geometry" />
        </mxCell>
        <mxCell id="gshfcQeMo9viiWqzpoU_-27" value="\(n\): sample size" style="shape=partialRectangle;html=1;whiteSpace=wrap;connectable=0;strokeColor=inherit;overflow=hidden;fillColor=none;top=0;left=0;bottom=0;right=0;pointerEvents=1;fontSize=12;align=left;spacingLeft=5;" parent="gshfcQeMo9viiWqzpoU_-26" vertex="1">
          <mxGeometry width="140" height="20" as="geometry">
            <mxRectangle width="140" height="20" as="alternateBounds" />
          </mxGeometry>
        </mxCell>
        <mxCell id="gshfcQeMo9viiWqzpoU_-28" value="" style="shape=tableRow;horizontal=0;startSize=0;swimlaneHead=0;swimlaneBody=0;strokeColor=inherit;top=0;left=0;bottom=0;right=0;collapsible=0;dropTarget=0;fillColor=none;points=[[0,0.5],[1,0.5]];portConstraint=eastwest;fontSize=16;" parent="gshfcQeMo9viiWqzpoU_-25" vertex="1">
          <mxGeometry y="20" width="140" height="18" as="geometry" />
        </mxCell>
        <mxCell id="gshfcQeMo9viiWqzpoU_-29" value="\(p\): # covariates" style="shape=partialRectangle;html=1;whiteSpace=wrap;connectable=0;strokeColor=inherit;overflow=hidden;fillColor=none;top=0;left=0;bottom=0;right=0;pointerEvents=1;fontSize=12;align=left;spacingLeft=5;" parent="gshfcQeMo9viiWqzpoU_-28" vertex="1">
          <mxGeometry width="140" height="18" as="geometry">
            <mxRectangle width="140" height="18" as="alternateBounds" />
          </mxGeometry>
        </mxCell>
        <mxCell id="gshfcQeMo9viiWqzpoU_-48" style="shape=tableRow;horizontal=0;startSize=0;swimlaneHead=0;swimlaneBody=0;strokeColor=inherit;top=0;left=0;bottom=0;right=0;collapsible=0;dropTarget=0;fillColor=none;points=[[0,0.5],[1,0.5]];portConstraint=eastwest;fontSize=16;" parent="gshfcQeMo9viiWqzpoU_-25" vertex="1">
          <mxGeometry y="38" width="140" height="18" as="geometry" />
        </mxCell>
        <mxCell id="gshfcQeMo9viiWqzpoU_-49" value="\(T\): # time points" style="shape=partialRectangle;html=1;whiteSpace=wrap;connectable=0;strokeColor=inherit;overflow=hidden;fillColor=none;top=0;left=0;bottom=0;right=0;pointerEvents=1;fontSize=12;align=left;spacingLeft=5;" parent="gshfcQeMo9viiWqzpoU_-48" vertex="1">
          <mxGeometry width="140" height="18" as="geometry">
            <mxRectangle width="140" height="18" as="alternateBounds" />
          </mxGeometry>
        </mxCell>
        <mxCell id="gshfcQeMo9viiWqzpoU_-34" value="Notation" style="text;html=1;align=center;verticalAlign=middle;whiteSpace=wrap;rounded=0;fillColor=#ffe6cc;strokeColor=#d79b00;" parent="1" vertex="1">
          <mxGeometry x="12.5" y="49" width="140" height="30" as="geometry" />
        </mxCell>
        <mxCell id="kir_VGYGd0OHTudOm7uo-4" value="&lt;div&gt;$$h_{seq}$$&lt;/div&gt;" style="rounded=1;whiteSpace=wrap;html=1;fontSize=15;" parent="1" vertex="1">
          <mxGeometry x="486" y="115" width="70" height="40" as="geometry" />
        </mxCell>
        <mxCell id="kir_VGYGd0OHTudOm7uo-14" value="$$Query$$" style="rounded=1;whiteSpace=wrap;html=1;fontSize=15;" parent="1" vertex="1">
          <mxGeometry x="342" y="309" width="70" height="40" as="geometry" />
        </mxCell>
        <mxCell id="kir_VGYGd0OHTudOm7uo-15" value="$$Value$$" style="rounded=1;whiteSpace=wrap;html=1;fontSize=15;" parent="1" vertex="1">
          <mxGeometry x="630" y="309" width="70" height="40" as="geometry" />
        </mxCell>
        <mxCell id="kir_VGYGd0OHTudOm7uo-16" value="$$Key$$" style="rounded=1;whiteSpace=wrap;html=1;fontSize=15;" parent="1" vertex="1">
          <mxGeometry x="486" y="309" width="70" height="40" as="geometry" />
        </mxCell>
        <mxCell id="kir_VGYGd0OHTudOm7uo-18" value="" style="endArrow=classic;html=1;rounded=0;exitX=0.01;exitY=0.87;exitDx=0;exitDy=0;exitPerimeter=0;entryX=0.5;entryY=0;entryDx=0;entryDy=0;" parent="1" source="kir_VGYGd0OHTudOm7uo-4" target="kir_VGYGd0OHTudOm7uo-14" edge="1">
          <mxGeometry width="50" height="50" relative="1" as="geometry">
            <mxPoint x="471" y="289" as="sourcePoint" />
            <mxPoint x="521" y="239" as="targetPoint" />
          </mxGeometry>
        </mxCell>
        <mxCell id="kir_VGYGd0OHTudOm7uo-19" value="" style="endArrow=classic;html=1;rounded=0;entryX=0.5;entryY=0;entryDx=0;entryDy=0;exitX=0.989;exitY=0.882;exitDx=0;exitDy=0;exitPerimeter=0;" parent="1" source="kir_VGYGd0OHTudOm7uo-4" target="kir_VGYGd0OHTudOm7uo-15" edge="1">
          <mxGeometry width="50" height="50" relative="1" as="geometry">
            <mxPoint x="671" y="229" as="sourcePoint" />
            <mxPoint x="561" y="354" as="targetPoint" />
          </mxGeometry>
        </mxCell>
        <mxCell id="kir_VGYGd0OHTudOm7uo-20" value="" style="endArrow=classic;html=1;rounded=0;entryX=0.5;entryY=0;entryDx=0;entryDy=0;" parent="1" source="kir_VGYGd0OHTudOm7uo-4" target="kir_VGYGd0OHTudOm7uo-16" edge="1">
          <mxGeometry width="50" height="50" relative="1" as="geometry">
            <mxPoint x="681" y="229" as="sourcePoint" />
            <mxPoint x="571" y="354" as="targetPoint" />
          </mxGeometry>
        </mxCell>
        <mxCell id="kir_VGYGd0OHTudOm7uo-21" value="$$f_{W_Q}$$" style="ellipse;whiteSpace=wrap;html=1;" parent="1" vertex="1">
          <mxGeometry x="412" y="219" width="46" height="30" as="geometry" />
        </mxCell>
        <mxCell id="kir_VGYGd0OHTudOm7uo-22" value="$$f_{W_K}$$" style="ellipse;whiteSpace=wrap;html=1;" parent="1" vertex="1">
          <mxGeometry x="498" y="229" width="46" height="30" as="geometry" />
        </mxCell>
        <mxCell id="kir_VGYGd0OHTudOm7uo-23" value="$$f_{W_V}$$" style="ellipse;whiteSpace=wrap;html=1;" parent="1" vertex="1">
          <mxGeometry x="586" y="219" width="46" height="30" as="geometry" />
        </mxCell>
        <mxCell id="kir_VGYGd0OHTudOm7uo-26" value="Projections (simple feed forward NN)" style="text;html=1;align=center;verticalAlign=middle;whiteSpace=wrap;rounded=0;dashed=1;strokeColor=default;" parent="1" vertex="1">
          <mxGeometry x="298" y="220" width="110" height="40" as="geometry" />
        </mxCell>
        <mxCell id="kir_VGYGd0OHTudOm7uo-27" value="$$(n \times T \times&amp;nbsp;p)$$" style="text;html=1;align=center;verticalAlign=middle;whiteSpace=wrap;rounded=0;fillColor=none;strokeColor=#b85450;gradientColor=none;fillStyle=auto;shadow=0;fontSize=10;" parent="1" vertex="1">
          <mxGeometry x="240.5" y="316.25" width="85" height="25.5" as="geometry" />
        </mxCell>
        <mxCell id="kir_VGYGd0OHTudOm7uo-28" value="" style="swimlane;startSize=0;dashed=1;strokeWidth=0.5;" parent="1" vertex="1">
          <mxGeometry x="326" y="292" width="390" height="70" as="geometry" />
        </mxCell>
        <mxCell id="kir_VGYGd0OHTudOm7uo-39" value="" style="edgeStyle=orthogonalEdgeStyle;rounded=0;orthogonalLoop=1;jettySize=auto;html=1;" parent="1" source="kir_VGYGd0OHTudOm7uo-29" target="kir_VGYGd0OHTudOm7uo-38" edge="1">
          <mxGeometry relative="1" as="geometry" />
        </mxCell>
        <mxCell id="kir_VGYGd0OHTudOm7uo-29" value="$$S = QK^T$$" style="rounded=1;whiteSpace=wrap;html=1;fontSize=15;" parent="1" vertex="1">
          <mxGeometry x="401" y="459" width="90" height="45" as="geometry" />
        </mxCell>
        <mxCell id="kir_VGYGd0OHTudOm7uo-30" value="" style="endArrow=classic;html=1;rounded=0;exitX=0.5;exitY=1;exitDx=0;exitDy=0;" parent="1" source="kir_VGYGd0OHTudOm7uo-14" target="kir_VGYGd0OHTudOm7uo-31" edge="1">
          <mxGeometry width="50" height="50" relative="1" as="geometry">
            <mxPoint x="551" y="499" as="sourcePoint" />
            <mxPoint x="601" y="449" as="targetPoint" />
          </mxGeometry>
        </mxCell>
        <mxCell id="kir_VGYGd0OHTudOm7uo-34" value="" style="edgeStyle=orthogonalEdgeStyle;rounded=0;orthogonalLoop=1;jettySize=auto;html=1;" parent="1" source="kir_VGYGd0OHTudOm7uo-31" target="kir_VGYGd0OHTudOm7uo-29" edge="1">
          <mxGeometry relative="1" as="geometry" />
        </mxCell>
        <mxCell id="kir_VGYGd0OHTudOm7uo-31" value="dot-product" style="ellipse;whiteSpace=wrap;html=1;" parent="1" vertex="1">
          <mxGeometry x="421" y="389" width="50" height="40" as="geometry" />
        </mxCell>
        <mxCell id="kir_VGYGd0OHTudOm7uo-32" value="" style="endArrow=classic;html=1;rounded=0;exitX=0.5;exitY=1;exitDx=0;exitDy=0;" parent="1" source="kir_VGYGd0OHTudOm7uo-16" target="kir_VGYGd0OHTudOm7uo-31" edge="1">
          <mxGeometry width="50" height="50" relative="1" as="geometry">
            <mxPoint x="481" y="409" as="sourcePoint" />
            <mxPoint x="533" y="454" as="targetPoint" />
          </mxGeometry>
        </mxCell>
        <mxCell id="kir_VGYGd0OHTudOm7uo-35" value="$$(n \times T \times T)$$" style="text;html=1;align=center;verticalAlign=middle;whiteSpace=wrap;rounded=0;fillColor=none;strokeColor=#b85450;gradientColor=none;fillStyle=auto;shadow=0;fontSize=10;" parent="1" vertex="1">
          <mxGeometry x="316" y="468.75" width="85" height="25.5" as="geometry" />
        </mxCell>
        <mxCell id="kir_VGYGd0OHTudOm7uo-38" value="$$A_W = softmax(m(S) / \sqrt p)$$" style="rounded=1;whiteSpace=wrap;html=1;fontSize=15;" parent="1" vertex="1">
          <mxGeometry x="330.5" y="544" width="231" height="50" as="geometry" />
        </mxCell>
        <mxCell id="kir_VGYGd0OHTudOm7uo-41" value="" style="edgeStyle=orthogonalEdgeStyle;rounded=0;orthogonalLoop=1;jettySize=auto;html=1;" parent="1" source="kir_VGYGd0OHTudOm7uo-40" target="kir_VGYGd0OHTudOm7uo-38" edge="1">
          <mxGeometry relative="1" as="geometry" />
        </mxCell>
        <mxCell id="kir_VGYGd0OHTudOm7uo-40" value="&lt;div&gt;mask function for time dependence&lt;/div&gt;" style="rounded=0;whiteSpace=wrap;html=1;fillColor=#dae8fc;strokeColor=#6c8ebf;" parent="1" vertex="1">
          <mxGeometry x="199" y="548" width="90" height="41" as="geometry" />
        </mxCell>
        <mxCell id="kir_VGYGd0OHTudOm7uo-42" value="dot-product" style="ellipse;whiteSpace=wrap;html=1;" parent="1" vertex="1">
          <mxGeometry x="614" y="594" width="50" height="40" as="geometry" />
        </mxCell>
        <mxCell id="SKo15fLE6GQcyllnIHAm-31" value="" style="edgeStyle=orthogonalEdgeStyle;rounded=0;orthogonalLoop=1;jettySize=auto;html=1;entryX=0.5;entryY=0;entryDx=0;entryDy=0;" parent="1" source="kir_VGYGd0OHTudOm7uo-43" target="SKo15fLE6GQcyllnIHAm-29" edge="1">
          <mxGeometry relative="1" as="geometry" />
        </mxCell>
        <mxCell id="kir_VGYGd0OHTudOm7uo-43" value="$$h_{out}$$" style="rounded=1;whiteSpace=wrap;html=1;fontSize=15;" parent="1" vertex="1">
          <mxGeometry x="476" y="650" width="90" height="45" as="geometry" />
        </mxCell>
        <mxCell id="kir_VGYGd0OHTudOm7uo-44" value="" style="endArrow=classic;html=1;rounded=0;exitX=0.034;exitY=0.71;exitDx=0;exitDy=0;entryX=0.965;entryY=0.095;entryDx=0;entryDy=0;entryPerimeter=0;exitPerimeter=0;" parent="1" source="kir_VGYGd0OHTudOm7uo-42" target="kir_VGYGd0OHTudOm7uo-43" edge="1">
          <mxGeometry width="50" height="50" relative="1" as="geometry">
            <mxPoint x="621" y="745" as="sourcePoint" />
            <mxPoint x="671" y="695" as="targetPoint" />
          </mxGeometry>
        </mxCell>
        <mxCell id="kir_VGYGd0OHTudOm7uo-45" value="" style="endArrow=classic;html=1;rounded=0;entryX=0;entryY=0;entryDx=0;entryDy=0;" parent="1" source="kir_VGYGd0OHTudOm7uo-38" target="kir_VGYGd0OHTudOm7uo-42" edge="1">
          <mxGeometry width="50" height="50" relative="1" as="geometry">
            <mxPoint x="702" y="649" as="sourcePoint" />
            <mxPoint x="651" y="689" as="targetPoint" />
          </mxGeometry>
        </mxCell>
        <mxCell id="kir_VGYGd0OHTudOm7uo-46" value="" style="endArrow=classic;html=1;rounded=0;entryX=0.5;entryY=0;entryDx=0;entryDy=0;" parent="1" source="kir_VGYGd0OHTudOm7uo-15" target="kir_VGYGd0OHTudOm7uo-42" edge="1">
          <mxGeometry width="50" height="50" relative="1" as="geometry">
            <mxPoint x="742" y="469" as="sourcePoint" />
            <mxPoint x="691" y="509" as="targetPoint" />
          </mxGeometry>
        </mxCell>
        <mxCell id="kir_VGYGd0OHTudOm7uo-47" value="$$(n \times T \times&amp;nbsp;p)$$" style="text;html=1;align=center;verticalAlign=middle;whiteSpace=wrap;rounded=0;fillColor=none;strokeColor=#b85450;gradientColor=none;fillStyle=auto;shadow=0;fontSize=10;" parent="1" vertex="1">
          <mxGeometry x="391" y="659.75" width="85" height="25.5" as="geometry" />
        </mxCell>
        <mxCell id="kir_VGYGd0OHTudOm7uo-56" value="" style="swimlane;startSize=0;dashed=1;strokeColor=light-dark(#e5a50a, #ededed);container=0;" parent="1" vertex="1">
          <mxGeometry x="181" y="193" width="550" height="580" as="geometry">
            <mxRectangle x="40" y="960" width="50" height="40" as="alternateBounds" />
          </mxGeometry>
        </mxCell>
        <mxCell id="kir_VGYGd0OHTudOm7uo-57" value="&lt;b&gt;Scaled Dot-Product Attention&lt;/b&gt;" style="text;html=1;align=center;verticalAlign=middle;whiteSpace=wrap;rounded=0;" parent="kir_VGYGd0OHTudOm7uo-56" vertex="1">
          <mxGeometry y="-1" width="185" height="30" as="geometry" />
        </mxCell>
        <mxCell id="SKo15fLE6GQcyllnIHAm-24" value="Inputs" style="rounded=0;whiteSpace=wrap;html=1;fillColor=#dae8fc;strokeColor=#6c8ebf;" parent="1" vertex="1">
          <mxGeometry x="154.25" y="49" width="137.5" height="20" as="geometry" />
        </mxCell>
        <mxCell id="SKo15fLE6GQcyllnIHAm-26" value="&lt;div&gt;Outputs&lt;/div&gt;" style="rounded=0;whiteSpace=wrap;html=1;fillColor=#f8cecc;strokeColor=#b85450;" parent="1" vertex="1">
          <mxGeometry x="154.25" y="70" width="137.5" height="20" as="geometry" />
        </mxCell>
        <mxCell id="SKo15fLE6GQcyllnIHAm-27" value="Stochastic" style="rounded=0;whiteSpace=wrap;html=1;fillColor=#d5e8d4;strokeColor=#82b366;" parent="1" vertex="1">
          <mxGeometry x="154.25" y="91" width="137.5" height="20" as="geometry" />
        </mxCell>
        <mxCell id="SKo15fLE6GQcyllnIHAm-34" value="" style="edgeStyle=orthogonalEdgeStyle;rounded=0;orthogonalLoop=1;jettySize=auto;html=1;" parent="1" source="SKo15fLE6GQcyllnIHAm-29" target="SKo15fLE6GQcyllnIHAm-32" edge="1">
          <mxGeometry relative="1" as="geometry" />
        </mxCell>
        <mxCell id="SKo15fLE6GQcyllnIHAm-29" value="$$f_{W_{att}}$$" style="ellipse;whiteSpace=wrap;html=1;" parent="1" vertex="1">
          <mxGeometry x="496.5" y="722" width="50" height="40" as="geometry" />
        </mxCell>
        <mxCell id="SKo15fLE6GQcyllnIHAm-30" value="Projection FFN + Dropout" style="text;html=1;align=center;verticalAlign=middle;whiteSpace=wrap;rounded=0;" parent="1" vertex="1">
          <mxGeometry x="396.5" y="730" width="100" height="30" as="geometry" />
        </mxCell>
        <mxCell id="SKo15fLE6GQcyllnIHAm-32" value="$$h_{out}$$" style="rounded=1;whiteSpace=wrap;html=1;fontSize=15;" parent="1" vertex="1">
          <mxGeometry x="476.5" y="791" width="90" height="45" as="geometry" />
        </mxCell>
        <mxCell id="SKo15fLE6GQcyllnIHAm-33" value="$$(n \times T \times&amp;nbsp;p)$$" style="text;html=1;align=center;verticalAlign=middle;whiteSpace=wrap;rounded=0;fillColor=none;strokeColor=#b85450;gradientColor=none;fillStyle=auto;shadow=0;fontSize=10;" parent="1" vertex="1">
          <mxGeometry x="391.5" y="800.75" width="85" height="25.5" as="geometry" />
        </mxCell>
        <mxCell id="kir_VGYGd0OHTudOm7uo-9" value="$$(n \times T \times p)$$" style="text;html=1;align=center;verticalAlign=middle;whiteSpace=wrap;rounded=0;fillColor=none;strokeColor=#b85450;gradientColor=none;fillStyle=auto;shadow=0;fontSize=10;" parent="1" vertex="1">
          <mxGeometry x="400.5" y="123" width="85" height="22.75" as="geometry" />
        </mxCell>
      </root>
    </mxGraphModel>
  </diagram>
  <diagram id="ePtbMaemszxgn41MYKDM" name="Page-2">
    <mxGraphModel grid="1" page="1" gridSize="10" guides="1" tooltips="1" connect="1" arrows="1" fold="1" pageScale="1" pageWidth="827" pageHeight="1169" math="0" shadow="0">
      <root>
        <mxCell id="0" />
        <mxCell id="1" parent="0" />
      </root>
    </mxGraphModel>
  </diagram>
</mxfile>
